<!DOCTYPE svg PUBLIC "-//W3C//DTD SVG 1.1//EN" "http://www.w3.org/Graphics/SVG/1.1/DTD/svg11.dtd">
<!-- Uploaded to: SVG Repo, www.svgrepo.com, Transformed by: SVG Repo Mixer Tools -->
<svg fill="#000000" height="180px" width="180px" version="1.1" id="Layer_1" xmlns="http://www.w3.org/2000/svg" xmlns:xlink="http://www.w3.org/1999/xlink" viewBox="0 0 512 512" xml:space="preserve">
<g id="SVGRepo_bgCarrier" stroke-width="0"/>
<g id="SVGRepo_tracerCarrier" stroke-linecap="round" stroke-linejoin="round"/>
<g id="SVGRepo_iconCarrier"> <g> <g> <path d="M411.564,111.33L302.628,2.393C301.096,0.861,299.018,0,296.851,0H54.497c-4.096,0-5.476,0-7.655,1.634 c-2.058,1.544-3.268,3.964-3.268,6.536v441.191c0,4.512,3.658,8.17,8.17,8.17h168.858c4.512,0,8.17-3.658,8.17-8.17 s-3.658-8.17-8.17-8.17H59.915V16.34c37.32,0,191.422,0,228.766,0v100.766c0,4.512,3.658,8.17,8.17,8.17h100.766v138.9 c0,4.512,3.658,8.17,8.17,8.17s8.17-3.658,8.17-8.17v-147.07C413.957,114.94,413.097,112.861,411.564,111.33z M305.021,108.936 V27.895l81.041,81.041H305.021z"/> </g> </g> <g> <g> <path d="M337.702,177.021H119.83c-4.512,0-8.17,3.658-8.17,8.17c0,4.512,3.658,8.17,8.17,8.17h217.872 c4.512,0,8.17-3.658,8.17-8.17C345.872,180.679,342.214,177.021,337.702,177.021z"/> </g> </g> <g> <g> <path d="M337.702,220.596H119.83c-4.512,0-8.17,3.658-8.17,8.17c0,4.512,3.658,8.17,8.17,8.17h217.872 c4.512,0,8.17-3.658,8.17-8.17C345.872,224.254,342.214,220.596,337.702,220.596z"/> </g> </g> <g> <g> <path d="M228.766,264.17H119.83c-4.512,0-8.17,3.658-8.17,8.17c0,4.512,3.658,8.17,8.17,8.17h108.936 c4.512,0,8.17-3.658,8.17-8.17C236.936,267.828,233.278,264.17,228.766,264.17z"/> </g> </g> <g> <g> <path d="M351.319,277.787c-64.573,0-117.106,52.533-117.106,117.106S286.746,512,351.319,512s117.106-52.533,117.106-117.106 S415.892,277.787,351.319,277.787z M351.319,495.66c-55.563,0-100.766-45.203-100.766-100.766 c0-55.563,45.203-100.766,100.766-100.766s100.766,45.203,100.766,100.766C452.085,450.457,406.882,495.66,351.319,495.66z"/> </g> </g> <g> <g> <path d="M405.787,370.383H375.83v-29.957c0-13.515-10.995-24.511-24.511-24.511s-24.511,10.996-24.511,24.511v29.957h-29.957 c-13.516,0-24.511,10.996-24.511,24.511s10.995,24.511,24.511,24.511h29.957v29.957c0,13.515,10.995,24.511,24.511,24.511 s24.511-10.996,24.511-24.511v-29.957h29.957c13.516,0,24.511-10.996,24.511-24.511S419.303,370.383,405.787,370.383z M405.787,403.064H367.66c-4.512,0-8.17,3.658-8.17,8.17v38.128c0,4.505-3.665,8.17-8.17,8.17s-8.17-3.666-8.17-8.17v-38.128 c0-4.512-3.658-8.17-8.17-8.17h-38.128c-4.506,0-8.17-3.666-8.17-8.17s3.665-8.17,8.17-8.17h38.128c4.512,0,8.17-3.658,8.17-8.17 v-38.128c0-4.505,3.665-8.17,8.17-8.17s8.17,3.666,8.17,8.17v38.128c0,4.512,3.658,8.17,8.17,8.17h38.128 c4.506,0,8.17,3.666,8.17,8.17S410.293,403.064,405.787,403.064z"/> </g> </g> </g>
</svg>